<svg xmlns="http://www.w3.org/2000/svg" width="78" height="79" viewBox="0 0 78 79"><g><g><path fill="#ffb400" d="M76.196 43.799l-1.182-1.613a5.073 5.073 0 0 1-.048-5.917l1.15-1.625a5.073 5.073 0 0 0-1.756-7.4l-1.757-.943A5.054 5.054 0 0 1 70 20.988l.336-1.96c.51-3-1.74-5.774-4.79-5.904l-1.997-.077a5.093 5.093 0 0 1-4.662-3.653l-.559-1.918c-.846-2.934-4.071-4.448-6.882-3.234l-1.836.781a5.061 5.061 0 0 1-5.78-1.276l-1.325-1.484a5.066 5.066 0 0 0-7.6.065l-1.31 1.498a5.079 5.079 0 0 1-5.764 1.356l-1.852-.767c-2.827-1.16-6.02.416-6.834 3.349l-.527 1.931a5.037 5.037 0 0 1-4.599 3.717l-1.996.112c-3.05.177-5.253 2.982-4.694 5.98l.367 1.963a5.057 5.057 0 0 1-2.523 5.344l-1.74.973C.766 29.265 0 32.745 1.804 35.198l1.182 1.612a5.073 5.073 0 0 1 .048 5.917l-1.15 1.63c-1.756 2.489-.942 5.948 1.757 7.397l1.756.944A5.052 5.052 0 0 1 8 58.007l-.336 1.963c-.51 3 1.74 5.773 4.79 5.901l1.996.081a5.088 5.088 0 0 1 4.663 3.653l.559 1.914c.846 2.935 4.071 4.45 6.882 3.24l1.836-.782a5.06 5.06 0 0 1 5.78 1.276l1.325 1.483c2.044 2.263 5.605 2.247 7.6-.065l1.31-1.499a5.08 5.08 0 0 1 5.764-1.357l1.852.764c2.826 1.167 6.02-.413 6.834-3.349l.527-1.93a5.043 5.043 0 0 1 4.599-3.716l1.996-.11c3.05-.176 5.253-2.982 4.694-5.98l-.367-1.964a5.052 5.052 0 0 1 2.523-5.342l1.74-.974C77.234 49.747 78 46.27 76.196 43.8z"/></g></g></svg>