<svg xmlns="http://www.w3.org/2000/svg" width="81" height="82" viewBox="0 0 81 82"><defs><linearGradient id="3y7ic" x1=".82" x2="76.82" y1="39.42" y2="39.58" gradientUnits="userSpaceOnUse"><stop offset="0" stop-color="#fca87f"/><stop offset=".5" stop-color="#fad077"/><stop offset="1" stop-color="#fcaa7f"/></linearGradient><filter id="3y7ia" width="200%" height="200%" x="-50%" y="-50%"><feGaussianBlur in="SourceGraphic" result="FeGaussianBlur1127Out" stdDeviation="2 2"/></filter><mask id="3y7ib"><path fill="#fff" d="M76.196 43.8l-1.182-1.614a5.074 5.074 0 0 1-.048-5.917l1.15-1.625a5.073 5.073 0 0 0-1.756-7.4l-1.757-.944A5.053 5.053 0 0 1 70 20.988l.336-1.96c.51-3-1.74-5.775-4.79-5.904l-1.997-.077a5.093 5.093 0 0 1-4.662-3.653l-.559-1.918c-.846-2.934-4.071-4.447-6.882-3.233l-1.836.78a5.062 5.062 0 0 1-5.78-1.277l-1.325-1.483a5.067 5.067 0 0 0-7.6.064l-1.31 1.499a5.082 5.082 0 0 1-5.764 1.356l-1.852-.768c-2.827-1.16-6.02.417-6.834 3.35l-.527 1.931a5.037 5.037 0 0 1-4.599 3.717l-1.996.112c-3.05.177-5.253 2.983-4.694 5.98l.367 1.963a5.056 5.056 0 0 1-2.523 5.344l-1.74.974C.766 29.265 0 32.745 1.804 35.199l1.182 1.611a5.074 5.074 0 0 1 .048 5.918l-1.15 1.629c-1.756 2.489-.942 5.948 1.757 7.398l1.756.943A5.051 5.051 0 0 1 8 58.007l-.336 1.964c-.51 2.998 1.74 5.772 4.79 5.9l1.996.082a5.088 5.088 0 0 1 4.663 3.653l.559 1.913c.846 2.935 4.071 4.45 6.882 3.241l1.836-.783a5.06 5.06 0 0 1 5.78 1.276l1.325 1.483c2.044 2.264 5.605 2.247 7.6-.065l1.31-1.498a5.078 5.078 0 0 1 5.764-1.358l1.852.765c2.826 1.166 6.02-.415 6.834-3.35l.527-1.929a5.043 5.043 0 0 1 4.599-3.717l1.996-.11c3.05-.176 5.253-2.981 4.694-5.98l-.367-1.964a5.052 5.052 0 0 1 2.523-5.342l1.74-.974c2.667-1.466 3.433-4.945 1.629-7.415z"/></mask></defs><g><g><path fill="#fca97f" d="M79.196 46.8l-1.182-1.614a5.073 5.073 0 0 1-.048-5.917l1.15-1.626a5.072 5.072 0 0 0-1.756-7.4l-1.757-.942A5.053 5.053 0 0 1 73 23.989l.336-1.961c.51-3-1.74-5.774-4.79-5.904l-1.997-.077a5.092 5.092 0 0 1-4.662-3.652l-.559-1.92c-.846-2.933-4.071-4.447-6.881-3.232l-1.837.78a5.062 5.062 0 0 1-5.78-1.276l-1.325-1.483a5.066 5.066 0 0 0-7.6.064l-1.31 1.498a5.081 5.081 0 0 1-5.764 1.357l-1.852-.769c-2.827-1.16-6.02.417-6.834 3.35l-.527 1.932a5.038 5.038 0 0 1-4.599 3.716l-1.996.112c-3.05.177-5.253 2.983-4.694 5.98l.367 1.963a5.057 5.057 0 0 1-2.523 5.345l-1.74.973C3.766 32.265 3 35.746 4.804 38.199l1.182 1.611a5.074 5.074 0 0 1 .048 5.918l-1.15 1.629a5.07 5.07 0 0 0 1.757 7.398l1.756.943A5.052 5.052 0 0 1 11 61.007l-.336 1.963c-.51 3 1.74 5.773 4.79 5.902l1.996.081a5.087 5.087 0 0 1 4.663 3.652l.559 1.914c.846 2.935 4.071 4.451 6.882 3.24l1.836-.781a5.06 5.06 0 0 1 5.78 1.274l1.325 1.484c2.044 2.264 5.605 2.247 7.6-.065l1.31-1.499a5.08 5.08 0 0 1 5.764-1.357l1.852.764c2.826 1.167 6.02-.414 6.834-3.35l.527-1.928a5.043 5.043 0 0 1 4.599-3.717l1.996-.11c3.05-.177 5.253-2.983 4.694-5.98l-.367-1.964a5.054 5.054 0 0 1 2.523-5.342l1.74-.974C80.234 52.748 81 49.27 79.196 46.8z"/></g><g><path fill="#f7cf7b" fill-opacity=".48" d="M-4 83V-4h86v87zm80.196-39.2l-1.182-1.614a5.074 5.074 0 0 1-.048-5.917l1.15-1.625a5.073 5.073 0 0 0-1.756-7.4l-1.757-.944A5.053 5.053 0 0 1 70 20.988l.336-1.96c.51-3-1.74-5.775-4.79-5.904l-1.997-.077a5.093 5.093 0 0 1-4.662-3.653l-.559-1.918c-.846-2.934-4.071-4.447-6.882-3.233l-1.836.78a5.062 5.062 0 0 1-5.78-1.277l-1.325-1.483a5.067 5.067 0 0 0-7.6.064l-1.31 1.499a5.082 5.082 0 0 1-5.764 1.356l-1.852-.768c-2.827-1.16-6.02.417-6.834 3.35l-.527 1.931a5.037 5.037 0 0 1-4.599 3.717l-1.996.112c-3.05.177-5.253 2.983-4.694 5.98l.367 1.963a5.056 5.056 0 0 1-2.523 5.344l-1.74.974C.766 29.265 0 32.745 1.804 35.199l1.182 1.611a5.074 5.074 0 0 1 .048 5.918l-1.15 1.629c-1.756 2.489-.942 5.948 1.757 7.398l1.756.943A5.051 5.051 0 0 1 8 58.007l-.336 1.964c-.51 2.998 1.74 5.772 4.79 5.9l1.996.082a5.088 5.088 0 0 1 4.663 3.653l.559 1.913c.846 2.935 4.071 4.45 6.882 3.241l1.836-.783a5.06 5.06 0 0 1 5.78 1.276l1.325 1.483c2.044 2.264 5.605 2.247 7.6-.065l1.31-1.498a5.078 5.078 0 0 1 5.764-1.358l1.852.765c2.826 1.166 6.02-.415 6.834-3.35l.527-1.929a5.043 5.043 0 0 1 4.599-3.717l1.996-.11c3.05-.176 5.253-2.981 4.694-5.98l-.367-1.964a5.052 5.052 0 0 1 2.523-5.342l1.74-.974c2.667-1.466 3.433-4.945 1.629-7.415z" filter="url(#3y7ia)" mask="url(&quot;#3y7ib&quot;)"/><path fill="#4197d7" d="M76.196 43.8l-1.182-1.614a5.074 5.074 0 0 1-.048-5.917l1.15-1.625a5.073 5.073 0 0 0-1.756-7.4l-1.757-.944A5.053 5.053 0 0 1 70 20.988l.336-1.96c.51-3-1.74-5.775-4.79-5.904l-1.997-.077a5.093 5.093 0 0 1-4.662-3.653l-.559-1.918c-.846-2.934-4.071-4.447-6.882-3.233l-1.836.78a5.062 5.062 0 0 1-5.78-1.277l-1.325-1.483a5.067 5.067 0 0 0-7.6.064l-1.31 1.499a5.082 5.082 0 0 1-5.764 1.356l-1.852-.768c-2.827-1.16-6.02.417-6.834 3.35l-.527 1.931a5.037 5.037 0 0 1-4.599 3.717l-1.996.112c-3.05.177-5.253 2.983-4.694 5.98l.367 1.963a5.056 5.056 0 0 1-2.523 5.344l-1.74.974C.766 29.265 0 32.745 1.804 35.199l1.182 1.611a5.074 5.074 0 0 1 .048 5.918l-1.15 1.629c-1.756 2.489-.942 5.948 1.757 7.398l1.756.943A5.051 5.051 0 0 1 8 58.007l-.336 1.964c-.51 2.998 1.74 5.772 4.79 5.9l1.996.082a5.088 5.088 0 0 1 4.663 3.653l.559 1.913c.846 2.935 4.071 4.45 6.882 3.241l1.836-.783a5.06 5.06 0 0 1 5.78 1.276l1.325 1.483c2.044 2.264 5.605 2.247 7.6-.065l1.31-1.498a5.078 5.078 0 0 1 5.764-1.358l1.852.765c2.826 1.166 6.02-.415 6.834-3.35l.527-1.929a5.043 5.043 0 0 1 4.599-3.717l1.996-.11c3.05-.176 5.253-2.981 4.694-5.98l-.367-1.964a5.052 5.052 0 0 1 2.523-5.342l1.74-.974c2.667-1.466 3.433-4.945 1.629-7.415z"/><path fill="url(#3y7ic)" d="M76.196 43.8l-1.182-1.614a5.074 5.074 0 0 1-.048-5.917l1.15-1.625a5.073 5.073 0 0 0-1.756-7.4l-1.757-.944A5.053 5.053 0 0 1 70 20.988l.336-1.96c.51-3-1.74-5.775-4.79-5.904l-1.997-.077a5.093 5.093 0 0 1-4.662-3.653l-.559-1.918c-.846-2.934-4.071-4.447-6.882-3.233l-1.836.78a5.062 5.062 0 0 1-5.78-1.277l-1.325-1.483a5.067 5.067 0 0 0-7.6.064l-1.31 1.499a5.082 5.082 0 0 1-5.764 1.356l-1.852-.768c-2.827-1.16-6.02.417-6.834 3.35l-.527 1.931a5.037 5.037 0 0 1-4.599 3.717l-1.996.112c-3.05.177-5.253 2.983-4.694 5.98l.367 1.963a5.056 5.056 0 0 1-2.523 5.344l-1.74.974C.766 29.265 0 32.745 1.804 35.199l1.182 1.611a5.074 5.074 0 0 1 .048 5.918l-1.15 1.629c-1.756 2.489-.942 5.948 1.757 7.398l1.756.943A5.051 5.051 0 0 1 8 58.007l-.336 1.964c-.51 2.998 1.74 5.772 4.79 5.9l1.996.082a5.088 5.088 0 0 1 4.663 3.653l.559 1.913c.846 2.935 4.071 4.45 6.882 3.241l1.836-.783a5.06 5.06 0 0 1 5.78 1.276l1.325 1.483c2.044 2.264 5.605 2.247 7.6-.065l1.31-1.498a5.078 5.078 0 0 1 5.764-1.358l1.852.765c2.826 1.166 6.02-.415 6.834-3.35l.527-1.929a5.043 5.043 0 0 1 4.599-3.717l1.996-.11c3.05-.176 5.253-2.981 4.694-5.98l-.367-1.964a5.052 5.052 0 0 1 2.523-5.342l1.74-.974c2.667-1.466 3.433-4.945 1.629-7.415z"/><path fill="#f7cf7b" fill-opacity=".48" d="M-4 83V-4h86v87zm80.196-39.2l-1.182-1.614a5.074 5.074 0 0 1-.048-5.917l1.15-1.625a5.073 5.073 0 0 0-1.756-7.4l-1.757-.944A5.053 5.053 0 0 1 70 20.988l.336-1.96c.51-3-1.74-5.775-4.79-5.904l-1.997-.077a5.093 5.093 0 0 1-4.662-3.653l-.559-1.918c-.846-2.934-4.071-4.447-6.882-3.233l-1.836.78a5.062 5.062 0 0 1-5.78-1.277l-1.325-1.483a5.067 5.067 0 0 0-7.6.064l-1.31 1.499a5.082 5.082 0 0 1-5.764 1.356l-1.852-.768c-2.827-1.16-6.02.417-6.834 3.35l-.527 1.931a5.037 5.037 0 0 1-4.599 3.717l-1.996.112c-3.05.177-5.253 2.983-4.694 5.98l.367 1.963a5.056 5.056 0 0 1-2.523 5.344l-1.74.974C.766 29.265 0 32.745 1.804 35.199l1.182 1.611a5.074 5.074 0 0 1 .048 5.918l-1.15 1.629c-1.756 2.489-.942 5.948 1.757 7.398l1.756.943A5.051 5.051 0 0 1 8 58.007l-.336 1.964c-.51 2.998 1.74 5.772 4.79 5.9l1.996.082a5.088 5.088 0 0 1 4.663 3.653l.559 1.913c.846 2.935 4.071 4.45 6.882 3.241l1.836-.783a5.06 5.06 0 0 1 5.78 1.276l1.325 1.483c2.044 2.264 5.605 2.247 7.6-.065l1.31-1.498a5.078 5.078 0 0 1 5.764-1.358l1.852.765c2.826 1.166 6.02-.415 6.834-3.35l.527-1.929a5.043 5.043 0 0 1 4.599-3.717l1.996-.11c3.05-.176 5.253-2.981 4.694-5.98l-.367-1.964a5.052 5.052 0 0 1 2.523-5.342l1.74-.974c2.667-1.466 3.433-4.945 1.629-7.415z" filter="url(#3y7ia)" mask="url(&quot;#3y7ib&quot;)"/></g></g></svg>