<svg xmlns="http://www.w3.org/2000/svg" width="28" height="32" viewBox="0 0 28 32"><g><g><path fill="#38c3bd" d="M27.803 24.14c-2.823 4.8-8.045 7.797-13.655 7.85a1.079 1.079 0 0 1-.304 0C8.236 31.934 3.017 28.94.197 24.141a1.064 1.064 0 0 1 0-1.081 15.87 15.87 0 0 1 9.022-7.123 1.073 1.073 0 0 1 1.066.257c1.027 1.011 2.604 2.117 3.53 2.736a1.08 1.08 0 0 1 .4.007c.854-.552 2.29-1.551 3.503-2.743a1.07 1.07 0 0 1 1.065-.257 15.878 15.878 0 0 1 9.02 7.12c.197.335.197.747 0 1.082zm-2.179-.54a13.74 13.74 0 0 0-6.89-5.428c-1.39 1.27-2.89 2.268-3.67 2.754v8.89c4.291-.33 8.222-2.636 10.56-6.216zM9.27 18.17a13.725 13.725 0 0 0-6.897 5.43c2.339 3.579 6.267 5.885 10.555 6.216v-8.91c-.805-.528-2.412-1.621-3.658-2.736zM21.047 7.097v1.92c0 3.913-3.163 7.096-7.05 7.096-3.889 0-7.052-3.184-7.052-7.096v-1.92c0-.529.05-1.034.146-1.514a1.068 1.068 0 0 1 .84-1.602 1.068 1.068 0 0 1 .891-.002h8.99a4.925 4.925 0 0 0-3.841-1.846 4.852 4.852 0 0 0-3.37 1.342 1.068 1.068 0 0 1-1.462-1.556 7.052 7.052 0 0 1 4.832-1.92c3.902 0 7.076 3.184 7.076 7.098zm-11.965 0v1.92c0 2.735 2.204 4.963 4.914 4.963 2.71 0 4.915-2.226 4.915-4.963v-1.92c0-.337-.034-.667-.098-.985H9.165c-.056.31-.083.639-.083.985z"/></g><g><path fill="#ffb400" d="M22.044 23.96c0 .59-.478 1.067-1.068 1.067h-.926v.924a1.068 1.068 0 0 1-2.137 0v-.924h-.924a1.066 1.066 0 1 1 0-2.134h.924v-.924c0-.59.478-1.066 1.068-1.066.591 0 1.069.477 1.069 1.066v.924h.926c.59 0 1.068.477 1.068 1.067zM10.97 3.05a3.012 3.012 0 0 1-3.01 3.007 3.012 3.012 0 0 1-3.01-3.006 3.011 3.011 0 0 1 6.02 0zm-2.136 0a.874.874 0 0 0-1.748 0 .875.875 0 0 0 1.748 0z"/></g></g></svg>