<svg xmlns="http://www.w3.org/2000/svg" width="21" height="24" viewBox="0 0 21 24"><g><g><path fill="#33c2bc" d="M20.364 18.155c.444.562.636 1.187.56 1.806-.076.613-.41 1.177-.968 1.633-.243.199-.49.385-.73.563-.353.265-.688.514-.987.793-.007.01-.017.016-.023.025-.863.731-1.884 1.025-3.04.881-.1-.011-.21-.031-.315-.046-1.703-.319-3.16-1.151-4.244-1.836-2.834-1.82-5.218-4.198-7.088-7.075-1.54-2.385-2.503-4.549-3.045-6.827C.264 7.142 0 5.734.3 4.292A3.66 3.66 0 0 1 1.67 2.11L3.584.606l.01-.009C4.155.182 4.777 0 5.388.073c.61.073 1.16.398 1.586.94.288.338.564.693.827 1.042.13.178.27.357.407.53l1.198 1.528c.922 1.17.755 2.528-.425 3.448-.157.121-.315.25-.473.37-.416.332-.844.673-1.3.996.222.708.56 1.428 1.089 2.287 1.096 1.74 2.292 3.126 3.658 4.242.134.11.293.216.463.329.117.076.239.158.36.246l1.775-1.376c.568-.447 1.191-.635 1.807-.562.62.077 1.173.421 1.596.98zm-1.077.826l-2.42-3.087-.008-.006c-.134-.19-.365-.416-.676-.457-.315-.034-.61.136-.801.285L13.46 17.21c-.096.074-.388.306-.803.253a1.112 1.112 0 0 1-.48-.188c-.02-.009-.037-.029-.056-.04-.134-.108-.294-.213-.463-.325a6.766 6.766 0 0 1-.575-.41c-1.481-1.206-2.775-2.705-3.947-4.575l-.005-.004C6.49 10.869 6.09 10 5.84 9.099l-.01-.046c-.055-.294-.083-.725.4-1.102.006-.008.017-.011.028-.02.484-.336.933-.688 1.406-1.062.163-.121.32-.25.483-.38.596-.46.656-.95.191-1.542L7.138 3.421c-.14-.186-.28-.363-.415-.542-.267-.352-.521-.684-.791-1.002-.004-.008-.009-.011-.013-.018-.14-.179-.373-.4-.688-.44-.255-.028-.53.061-.804.262L2.51 3.17a2.305 2.305 0 0 0-.873 1.397c-.187.904-.136 1.89.176 3.19.505 2.128 1.413 4.159 2.867 6.418 1.764 2.708 4.012 4.952 6.676 6.664.975.62 2.285 1.366 3.76 1.645.075.013.155.022.23.033.78.092 1.407-.084 1.98-.564.354-.327.725-.61 1.088-.878.241-.182.465-.35.686-.533-.006.003-.005 0 0 0 .575-.467.64-.989.187-1.562z"/></g></g></svg>