<svg xmlns="http://www.w3.org/2000/svg" width="19" height="20" viewBox="0 0 19 20"><g><g><path fill="#38c3bd" d="M9.752 19.963A.838.838 0 0 1 9.5 20a.841.841 0 0 1-.253-.037C0 17.068.145 10.207.25 5.199c.011-.539.022-1.048.022-1.54 0-.383.346-.695.772-.695 3.304 0 5.82-.858 7.916-2.701a.835.835 0 0 1 1.077 0c2.097 1.843 4.613 2.701 7.917 2.701.426 0 .772.312.772.696 0 .49.01 1 .022 1.539.106 5.007.25 11.87-8.997 14.764zm7.452-14.737a140.45 140.45 0 0 1-.016-.882c-3.095-.116-5.57-.965-7.688-2.63-2.118 1.665-4.593 2.513-7.687 2.63-.005.287-.01.58-.017.882-.107 5.034-.227 10.735 7.704 13.338 7.93-2.603 7.81-8.304 7.704-13.338zm-3.951 2.38a.654.654 0 0 1 0 .99l-4.275 3.862a.81.81 0 0 1-.547.202.81.81 0 0 1-.546-.202l-2.137-1.932a.648.648 0 0 1 0-.985.828.828 0 0 1 1.092 0l1.591 1.437 3.73-3.371a.838.838 0 0 1 1.092 0z"/></g></g></svg>