<svg xmlns="http://www.w3.org/2000/svg" width="28" height="32" viewBox="0 0 28 32"><g><g><path fill="#33c2bc" d="M26.844 24.208c.585.748.838 1.582.737 2.408-.099.817-.54 1.57-1.276 2.177-.32.265-.645.513-.962.75-.465.353-.907.686-1.301 1.058-.008.014-.023.021-.03.033-1.137.975-2.484 1.366-4.008 1.174-.132-.014-.276-.041-.414-.06-2.245-.426-4.166-1.536-5.595-2.448-3.735-2.426-6.878-5.598-9.344-9.434-2.03-3.179-3.298-6.064-4.013-9.102C.348 9.525 0 7.647.395 5.725a4.888 4.888 0 0 1 1.808-2.91L4.724.81 4.74.798C5.476.245 6.296 0 7.1.1c.805.098 1.529.532 2.09 1.252.381.453.745.926 1.09 1.391.173.238.358.475.537.706l1.58 2.037c1.215 1.562.995 3.372-.56 4.598-.208.162-.416.333-.624.494-.549.442-1.113.897-1.715 1.327.293.944.74 1.903 1.436 3.05 1.445 2.319 3.022 4.168 4.822 5.655.177.148.387.288.61.438.155.103.316.212.476.33l2.34-1.836c.748-.595 1.57-.846 2.38-.75.819.103 1.547.562 2.105 1.309zm-1.42 1.101l-3.189-4.115-.012-.01c-.177-.252-.481-.553-.89-.608-.416-.046-.805.18-1.057.38l-2.534 1.993c-.125.1-.51.407-1.058.337a1.451 1.451 0 0 1-.633-.25c-.025-.013-.049-.038-.074-.055-.176-.143-.387-.282-.61-.432a8.762 8.762 0 0 1-.757-.546c-1.953-1.61-3.658-3.607-5.204-6.1l-.005-.006c-.847-1.404-1.375-2.561-1.704-3.764l-.013-.06c-.072-.393-.11-.968.527-1.47.008-.011.022-.015.037-.026.637-.448 1.23-.917 1.854-1.416.214-.163.422-.333.637-.507.785-.613.864-1.267.25-2.056L9.41 4.564c-.183-.248-.369-.485-.547-.724a30.015 30.015 0 0 0-1.043-1.335c-.005-.012-.011-.016-.017-.025-.185-.237-.491-.533-.907-.585-.336-.039-.7.08-1.06.348L3.31 4.23a3.077 3.077 0 0 0-1.15 1.863c-.248 1.206-.18 2.52.231 4.254.666 2.837 1.862 5.544 3.779 8.557 2.325 3.61 5.289 6.602 8.8 8.884 1.286.828 3.013 1.822 4.957 2.194.098.017.204.03.302.043 1.03.124 1.856-.111 2.61-.752a17.21 17.21 0 0 1 1.435-1.17c.318-.243.612-.467.904-.71-.008.004-.007 0 0 0 .758-.622.844-1.319.247-2.083z"/></g><g><path fill="#ffb400" d="M15.818 7.43l1.253-1.115s3.43-.246 5.605 2.322c2.176 2.568 1.438 6.25 1.438 6.25L22.861 16s.745-3.673-1.427-6.237c-2.18-2.572-5.616-2.334-5.616-2.334z"/></g><g><path fill="#ffb400" d="M21.626 4.88l1.253-1.115s1.77-1.096 3.946 1.472c2.175 2.568.608 4.549.608 4.549L26.18 10.9s1.574-1.973-.598-4.536c-2.18-2.573-3.956-1.484-3.956-1.484z"/></g></g></svg>