<svg xmlns="http://www.w3.org/2000/svg" width="24" height="27" viewBox="0 0 24 27"><g><g><path fill="#42cac4" d="M11.054 12.376a.928.928 0 0 0 0-1.317.938.938 0 0 0-1.322 0l-4.946 4.928a4.334 4.334 0 0 0-1.299 3.11 4.34 4.34 0 0 0 1.3 3.112c1.731 1.725 4.535 1.725 6.244 0L22.2 11.08A6.088 6.088 0 0 0 24 6.743a6.089 6.089 0 0 0-1.8-4.337 6.178 6.178 0 0 0-8.729 0L2.325 13.511A7.819 7.819 0 0 0 0 19.097c0 2.112.82 4.11 2.325 5.586A7.875 7.875 0 0 0 7.932 27c2.12 0 4.125-.818 5.607-2.317l4.945-4.927a.93.93 0 0 0 0-1.318.94.94 0 0 0-1.322 0l-4.946 4.927a6.044 6.044 0 0 1-4.284 1.774 6.044 6.044 0 0 1-4.285-1.774 5.994 5.994 0 0 1-1.778-4.268c0-1.613.638-3.133 1.778-4.268L14.792 3.724a4.245 4.245 0 0 1 3.031-1.249c1.14 0 2.234.453 3.032 1.249a4.218 4.218 0 0 1 1.253 3.02 4.275 4.275 0 0 1-1.253 3.02L9.687 20.89c-.98.977-2.599.977-3.601 0a2.517 2.517 0 0 1 0-3.588z"/></g></g></svg>