<svg xmlns="http://www.w3.org/2000/svg" width="47" height="37" viewBox="0 0 47 37"><g><g><g><text fill="#ffb400" style="line-height:24px" dominant-baseline="text-before-edge" font-family="'Helios','Helios-Bold'" font-size="19" font-style="none" font-weight="700" transform="translate(6 14)"><tspan style="font-kerning:normal">3</tspan><tspan style="font-kerning:normal">0</tspan></text></g></g><g><path fill="#42cac4" d="M34 2v17h13v1H34v16.4c0 .332-.271.6-.607.6H.607A.603.603 0 0 1 0 36.4V2h5V0h5v2h14V0h5v2zm-9 2h3V1h-3zM6 4h3V1H6zM1 8h32V3h-4v2h-5V3H10v2H5V3H1zm32 28V9H1v27z"/></g></g></svg>