<svg xmlns="http://www.w3.org/2000/svg" width="32" height="32" viewBox="0 0 32 32"><g><g><path fill="#38c3bd" d="M29.32 4.109c0 2.267-1.81 4.109-4.039 4.109-2.229 0-4.039-1.842-4.039-4.11 0-2.266 1.81-4.108 4.04-4.108C27.51 0 29.32 1.842 29.32 4.11zm-1.601 0c0-1.37-1.091-2.48-2.438-2.48-1.346 0-2.438 1.11-2.438 2.48 0 1.37 1.092 2.48 2.438 2.48 1.347 0 2.438-1.11 2.438-2.48zM32 13.118v5.205a4.1 4.1 0 0 1-2.104 3.585v6.847c0 1.789-1.432 3.245-3.19 3.245h-3.634a.81.81 0 0 1-.804-.818.81.81 0 0 1 .804-.817h3.634c.876 0 1.588-.725 1.588-1.616v-7.354a.82.82 0 0 1 .523-.764 2.452 2.452 0 0 0 1.582-2.294v-5.206c0-1.35-1.079-2.447-2.405-2.447h-3.438a.81.81 0 0 1-.804-.818.81.81 0 0 1 .804-.817h3.438c2.209 0 4.006 1.822 4.006 4.069zm-25.281-4.9c-2.229 0-4.04-1.842-4.04-4.11C2.68 1.843 4.49 0 6.72 0s4.04 1.842 4.04 4.109-1.818 4.109-4.04 4.109zm0-1.63c1.346 0 2.438-1.11 2.438-2.48 0-1.37-1.092-2.479-2.438-2.479S4.281 2.746 4.281 4.11c0 1.37 1.092 2.48 2.438 2.48zm-4.614 22.14v-6.827A4.099 4.099 0 0 1 0 18.317v-5.206c0-2.247 1.797-4.076 4.007-4.076h3.431a.81.81 0 0 1 .804.818.81.81 0 0 1-.804.818H4.013c-1.327 0-2.405 1.098-2.405 2.447v5.206a2.45 2.45 0 0 0 1.575 2.294c.314.119.523.425.523.764v7.347c0 .89.712 1.616 1.588 1.616h3.634a.81.81 0 0 1 .804.818.81.81 0 0 1-.804.817H5.294c-1.758 0-3.19-1.455-3.19-3.251z"/></g><g><path fill="#ffb400" d="M11.96 4.109C11.96 1.842 13.772 0 16 0s4.04 1.842 4.04 4.109S18.228 8.218 16 8.218s-4.04-1.842-4.04-4.11zm1.602 0c0 1.37 1.092 2.48 2.438 2.48s2.438-1.11 2.438-2.48c0-1.37-1.092-2.48-2.438-2.48s-2.438 1.117-2.438 2.48zm-2.575 24.627v-6.828a4.1 4.1 0 0 1-2.105-3.584v-5.206c0-2.247 1.798-4.075 4.007-4.075h6.216c2.209 0 4.006 1.828 4.006 4.075v5.206a4.1 4.1 0 0 1-2.104 3.584v6.828c0 1.789-1.432 3.244-3.19 3.244h-3.634c-1.758 0-3.19-1.455-3.196-3.244zm1.098-8.118c.314.119.523.425.523.764v7.354c0 .89.712 1.614 1.588 1.614h3.634c.876 0 1.588-.724 1.588-1.614v-7.354c0-.34.21-.645.523-.764a2.457 2.457 0 0 0 1.575-2.295v-5.205c0-1.35-1.078-2.447-2.405-2.447h-6.216c-1.326 0-2.405 1.098-2.405 2.447v5.205c0 1.017.634 1.942 1.595 2.295z"/></g></g></svg>