<svg xmlns="http://www.w3.org/2000/svg" width="28" height="32" viewBox="0 0 28 32"><g><g><path fill="#38c3bd" d="M27.45 30.479c-.554.984-1.646 1.521-3.077 1.521H4.258a.904.904 0 0 1-.316-.063C1.718 31.62 0 29.746 0 27.463V9.272c0-.472.376-.856.838-.856h7.514c.463 0 .839.384.839.856v6.67l.623-1.126v-8.11a3.46 3.46 0 0 1-2.231-3.243C7.583 1.554 9.103 0 10.974 0h8.177c1.87 0 3.392 1.554 3.392 3.463a3.46 3.46 0 0 1-2.23 3.243v8.106L27.2 27c.71 1.264.8 2.503.25 3.479zm-22.858-.193c1.61 0 2.919-1.267 2.919-2.825V10.124H1.673v4.792h2.47c.463 0 .838.383.838.856a.848.848 0 0 1-.838.856h-2.47v2.777h2.47c.463 0 .838.382.838.856a.848.848 0 0 1-.838.856h-2.47v2.778h2.47c.463 0 .838.38.838.856 0 .47-.375.855-.838.855h-2.47v1.855c0 1.558 1.307 2.828 2.919 2.825zm21.147-2.43L18.74 15.468a.835.835 0 0 1-.114-.428V6.04a.85.85 0 0 1 .733-.85 1.737 1.737 0 0 0 1.5-1.727c0-.965-.77-1.752-1.714-1.752h-8.177c-.945 0-1.715.787-1.715 1.752 0 .874.645 1.616 1.5 1.728a.85.85 0 0 1 .734.849v9.001a.88.88 0 0 1-.11.421L9.38 19.071a.808.808 0 0 1-.193.228v8.164c0 1.075-.395 2.047-1.029 2.826h16.209c.794 0 1.385-.245 1.626-.665.24-.421.149-1.067-.254-1.769z"/></g><g><path fill="#ffb400" d="M21.107 24.289c0 1.654-1.311 2.991-2.932 2.991-1.62 0-2.93-1.337-2.93-2.991 0-1.651 1.31-2.992 2.93-2.992s2.932 1.34 2.932 2.992zm-6.54-3.252c0 .812-.642 1.465-1.437 1.465-.794 0-1.436-.658-1.436-1.465 0-.81.643-1.468 1.436-1.468.797 0 1.437.659 1.437 1.468zm1.073-3.31a.906.906 0 0 1-.902-.918c0-.509.401-.92.902-.92a.91.91 0 0 1 .902.92.91.91 0 0 1-.902.919zm-2.591 8.634c0 .512-.405.92-.902.92a.908.908 0 0 1-.903-.92.91.91 0 0 1 .903-.918.91.91 0 0 1 .902.918zm1.577-12.255a1.196 1.196 0 0 1-1.183-1.21c0-.667.53-1.207 1.183-1.207.654 0 1.185.54 1.185 1.207a1.2 1.2 0 0 1-1.185 1.21z"/></g></g></svg>